<mxfile host="app.diagrams.net" modified="2023-11-19T02:35:33.353Z" agent="Mozilla/5.0 (Macintosh; Intel Mac OS X 10_15_7) AppleWebKit/605.1.15 (KHTML, like Gecko) Version/17.0 Safari/605.1.15" etag="iRyaWMvZJ5eoaeLL8jh4" version="22.1.3" type="github">
  <diagram id="C5RBs43oDa-KdzZeNtuy" name="컴파일타임의존성">
    <mxGraphModel dx="2099" dy="801" grid="1" gridSize="10" guides="1" tooltips="1" connect="1" arrows="1" fold="1" page="1" pageScale="1" pageWidth="827" pageHeight="1169" math="0" shadow="0">
      <root>
        <mxCell id="WIyWlLk6GJQsqaUBKTNV-0" />
        <mxCell id="WIyWlLk6GJQsqaUBKTNV-1" parent="WIyWlLk6GJQsqaUBKTNV-0" />
        <mxCell id="KBdsOxHRQ0m3mg_pdTkf-87" value="" style="shape=folder;fontStyle=1;tabWidth=80;tabHeight=30;tabPosition=left;html=1;boundedLbl=1;whiteSpace=wrap;" vertex="1" parent="WIyWlLk6GJQsqaUBKTNV-1">
          <mxGeometry x="-431" width="1791" height="990" as="geometry" />
        </mxCell>
        <mxCell id="KBdsOxHRQ0m3mg_pdTkf-2" value="Builder" style="rounded=1;whiteSpace=wrap;html=1;arcSize=35;" vertex="1" parent="WIyWlLk6GJQsqaUBKTNV-1">
          <mxGeometry x="-240" y="450" width="180" height="40" as="geometry" />
        </mxCell>
        <mxCell id="KBdsOxHRQ0m3mg_pdTkf-4" value="Presenter" style="rounded=1;whiteSpace=wrap;html=1;arcSize=35;" vertex="1" parent="WIyWlLk6GJQsqaUBKTNV-1">
          <mxGeometry x="434" y="490" width="180" height="40" as="geometry" />
        </mxCell>
        <mxCell id="KBdsOxHRQ0m3mg_pdTkf-5" value="Router" style="rounded=1;whiteSpace=wrap;html=1;arcSize=35;" vertex="1" parent="WIyWlLk6GJQsqaUBKTNV-1">
          <mxGeometry x="668" y="490" width="180" height="40" as="geometry" />
        </mxCell>
        <mxCell id="KBdsOxHRQ0m3mg_pdTkf-6" value="Interactor" style="rounded=1;whiteSpace=wrap;html=1;arcSize=35;" vertex="1" parent="WIyWlLk6GJQsqaUBKTNV-1">
          <mxGeometry x="540" y="250" width="180" height="40" as="geometry" />
        </mxCell>
        <mxCell id="KBdsOxHRQ0m3mg_pdTkf-7" value="UIViewController" style="rounded=1;whiteSpace=wrap;html=1;arcSize=35;" vertex="1" parent="WIyWlLk6GJQsqaUBKTNV-1">
          <mxGeometry x="450" y="750" width="180" height="40" as="geometry" />
        </mxCell>
        <mxCell id="KBdsOxHRQ0m3mg_pdTkf-48" value="«interface»&lt;br&gt;&lt;b&gt;BuildingLogic&lt;/b&gt;" style="html=1;whiteSpace=wrap;" vertex="1" parent="WIyWlLk6GJQsqaUBKTNV-1">
          <mxGeometry x="-270" y="530" width="110" height="50" as="geometry" />
        </mxCell>
        <mxCell id="KBdsOxHRQ0m3mg_pdTkf-49" value="«interface»&lt;br&gt;&lt;b&gt;ListeningLogic&lt;/b&gt;" style="html=1;whiteSpace=wrap;" vertex="1" parent="WIyWlLk6GJQsqaUBKTNV-1">
          <mxGeometry x="90" y="320" width="110" height="50" as="geometry" />
        </mxCell>
        <mxCell id="KBdsOxHRQ0m3mg_pdTkf-50" value="«interface»&lt;br&gt;&lt;b&gt;Dependency&lt;/b&gt;" style="html=1;whiteSpace=wrap;" vertex="1" parent="WIyWlLk6GJQsqaUBKTNV-1">
          <mxGeometry x="-120" y="530" width="110" height="50" as="geometry" />
        </mxCell>
        <mxCell id="KBdsOxHRQ0m3mg_pdTkf-52" value="Component" style="rounded=1;whiteSpace=wrap;html=1;arcSize=35;" vertex="1" parent="WIyWlLk6GJQsqaUBKTNV-1">
          <mxGeometry x="-230" y="610" width="180" height="40" as="geometry" />
        </mxCell>
        <mxCell id="KBdsOxHRQ0m3mg_pdTkf-55" value="Worker" style="rounded=1;whiteSpace=wrap;html=1;arcSize=35;" vertex="1" parent="WIyWlLk6GJQsqaUBKTNV-1">
          <mxGeometry x="190" y="565" width="180" height="40" as="geometry" />
        </mxCell>
        <mxCell id="KBdsOxHRQ0m3mg_pdTkf-56" value="«interface»&lt;br&gt;&lt;b&gt;DisplayLogic&lt;/b&gt;" style="html=1;whiteSpace=wrap;" vertex="1" parent="WIyWlLk6GJQsqaUBKTNV-1">
          <mxGeometry x="410" y="560" width="110" height="50" as="geometry" />
        </mxCell>
        <mxCell id="KBdsOxHRQ0m3mg_pdTkf-57" value="ViewModel" style="rounded=1;whiteSpace=wrap;html=1;arcSize=35;" vertex="1" parent="WIyWlLk6GJQsqaUBKTNV-1">
          <mxGeometry x="551" y="565" width="180" height="40" as="geometry" />
        </mxCell>
        <mxCell id="KBdsOxHRQ0m3mg_pdTkf-58" value="«interface»&lt;br&gt;&lt;b&gt;RequestLogic&lt;/b&gt;" style="html=1;whiteSpace=wrap;" vertex="1" parent="WIyWlLk6GJQsqaUBKTNV-1">
          <mxGeometry x="705" y="390" width="110" height="50" as="geometry" />
        </mxCell>
        <mxCell id="KBdsOxHRQ0m3mg_pdTkf-59" value="Request" style="rounded=1;whiteSpace=wrap;html=1;arcSize=35;" vertex="1" parent="WIyWlLk6GJQsqaUBKTNV-1">
          <mxGeometry x="668" y="320" width="180" height="40" as="geometry" />
        </mxCell>
        <mxCell id="KBdsOxHRQ0m3mg_pdTkf-61" value="«interface»&lt;br&gt;&lt;b&gt;WorkingLogic&lt;/b&gt;" style="html=1;whiteSpace=wrap;" vertex="1" parent="WIyWlLk6GJQsqaUBKTNV-1">
          <mxGeometry x="250" y="390" width="110" height="50" as="geometry" />
        </mxCell>
        <mxCell id="KBdsOxHRQ0m3mg_pdTkf-62" value="«interface»&lt;br&gt;&lt;b&gt;PresentationLogic&lt;/b&gt;" style="html=1;whiteSpace=wrap;" vertex="1" parent="WIyWlLk6GJQsqaUBKTNV-1">
          <mxGeometry x="454" y="390" width="140" height="50" as="geometry" />
        </mxCell>
        <mxCell id="KBdsOxHRQ0m3mg_pdTkf-63" value="Response" style="rounded=1;whiteSpace=wrap;html=1;arcSize=35;" vertex="1" parent="WIyWlLk6GJQsqaUBKTNV-1">
          <mxGeometry x="430" y="320" width="180" height="40" as="geometry" />
        </mxCell>
        <mxCell id="KBdsOxHRQ0m3mg_pdTkf-67" value="Respository" style="rounded=1;whiteSpace=wrap;html=1;arcSize=35;" vertex="1" parent="WIyWlLk6GJQsqaUBKTNV-1">
          <mxGeometry x="1020" y="490" width="180" height="40" as="geometry" />
        </mxCell>
        <mxCell id="KBdsOxHRQ0m3mg_pdTkf-69" value="Domain Model" style="rounded=1;whiteSpace=wrap;html=1;arcSize=35;" vertex="1" parent="WIyWlLk6GJQsqaUBKTNV-1">
          <mxGeometry x="550" y="130" width="180" height="40" as="geometry" />
        </mxCell>
        <mxCell id="KBdsOxHRQ0m3mg_pdTkf-74" value="Networking" style="rounded=1;whiteSpace=wrap;html=1;arcSize=35;" vertex="1" parent="WIyWlLk6GJQsqaUBKTNV-1">
          <mxGeometry x="1025" y="770" width="180" height="40" as="geometry" />
        </mxCell>
        <mxCell id="KBdsOxHRQ0m3mg_pdTkf-75" value="«interface»&lt;br&gt;&lt;b&gt;NetworkingLogic&lt;/b&gt;" style="html=1;whiteSpace=wrap;" vertex="1" parent="WIyWlLk6GJQsqaUBKTNV-1">
          <mxGeometry x="1160" y="650" width="140" height="50" as="geometry" />
        </mxCell>
        <mxCell id="KBdsOxHRQ0m3mg_pdTkf-81" value="" style="line;strokeWidth=2;html=1;" vertex="1" parent="WIyWlLk6GJQsqaUBKTNV-1">
          <mxGeometry x="60" y="210" width="1300" height="10" as="geometry" />
        </mxCell>
        <mxCell id="KBdsOxHRQ0m3mg_pdTkf-82" value="«interface»&lt;br&gt;&lt;b&gt;RepositoryLogic&lt;/b&gt;" style="html=1;whiteSpace=wrap;" vertex="1" parent="WIyWlLk6GJQsqaUBKTNV-1">
          <mxGeometry x="1025" y="390" width="140" height="50" as="geometry" />
        </mxCell>
        <mxCell id="KBdsOxHRQ0m3mg_pdTkf-85" value="" style="line;strokeWidth=2;html=1;" vertex="1" parent="WIyWlLk6GJQsqaUBKTNV-1">
          <mxGeometry x="70" y="460" width="1290" height="10" as="geometry" />
        </mxCell>
        <mxCell id="KBdsOxHRQ0m3mg_pdTkf-86" value="" style="line;strokeWidth=2;html=1;" vertex="1" parent="WIyWlLk6GJQsqaUBKTNV-1">
          <mxGeometry x="70" y="720" width="1290" height="10" as="geometry" />
        </mxCell>
        <mxCell id="KBdsOxHRQ0m3mg_pdTkf-88" value="" style="group" vertex="1" connectable="0" parent="WIyWlLk6GJQsqaUBKTNV-1">
          <mxGeometry x="1140" y="560" width="190" height="50" as="geometry" />
        </mxCell>
        <mxCell id="KBdsOxHRQ0m3mg_pdTkf-71" value="ResponseModel" style="rounded=1;whiteSpace=wrap;html=1;arcSize=35;" vertex="1" parent="KBdsOxHRQ0m3mg_pdTkf-88">
          <mxGeometry width="180" height="40" as="geometry" />
        </mxCell>
        <mxCell id="KBdsOxHRQ0m3mg_pdTkf-77" value="ResponseModel" style="rounded=1;whiteSpace=wrap;html=1;arcSize=35;" vertex="1" parent="KBdsOxHRQ0m3mg_pdTkf-88">
          <mxGeometry x="10" y="10" width="180" height="40" as="geometry" />
        </mxCell>
        <mxCell id="KBdsOxHRQ0m3mg_pdTkf-89" value="" style="group" vertex="1" connectable="0" parent="WIyWlLk6GJQsqaUBKTNV-1">
          <mxGeometry x="920" y="640" width="200" height="50" as="geometry" />
        </mxCell>
        <mxCell id="KBdsOxHRQ0m3mg_pdTkf-72" value="APIService" style="rounded=1;whiteSpace=wrap;html=1;arcSize=35;" vertex="1" parent="KBdsOxHRQ0m3mg_pdTkf-89">
          <mxGeometry width="180" height="40" as="geometry" />
        </mxCell>
        <mxCell id="KBdsOxHRQ0m3mg_pdTkf-76" value="APIService" style="rounded=1;whiteSpace=wrap;html=1;arcSize=35;" vertex="1" parent="KBdsOxHRQ0m3mg_pdTkf-89">
          <mxGeometry x="20" y="10" width="180" height="40" as="geometry" />
        </mxCell>
        <mxCell id="KBdsOxHRQ0m3mg_pdTkf-90" value="" style="group" vertex="1" connectable="0" parent="WIyWlLk6GJQsqaUBKTNV-1">
          <mxGeometry x="930" y="555" width="150" height="60" as="geometry" />
        </mxCell>
        <mxCell id="KBdsOxHRQ0m3mg_pdTkf-83" value="«interface»&lt;br&gt;&lt;b&gt;APIServiceLogic&lt;/b&gt;" style="html=1;whiteSpace=wrap;" vertex="1" parent="KBdsOxHRQ0m3mg_pdTkf-90">
          <mxGeometry width="140" height="50" as="geometry" />
        </mxCell>
        <mxCell id="KBdsOxHRQ0m3mg_pdTkf-84" value="«interface»&lt;br&gt;&lt;b&gt;APIServiceLogic&lt;/b&gt;" style="html=1;whiteSpace=wrap;" vertex="1" parent="KBdsOxHRQ0m3mg_pdTkf-90">
          <mxGeometry x="10" y="10" width="140" height="50" as="geometry" />
        </mxCell>
        <mxCell id="KBdsOxHRQ0m3mg_pdTkf-91" value="" style="line;strokeWidth=2;direction=south;html=1;" vertex="1" parent="WIyWlLk6GJQsqaUBKTNV-1">
          <mxGeometry x="59" y="30" width="10" height="966" as="geometry" />
        </mxCell>
        <mxCell id="KBdsOxHRQ0m3mg_pdTkf-92" value="" style="line;strokeWidth=2;direction=south;html=1;" vertex="1" parent="WIyWlLk6GJQsqaUBKTNV-1">
          <mxGeometry x="899" y="460" width="10" height="531" as="geometry" />
        </mxCell>
      </root>
    </mxGraphModel>
  </diagram>
</mxfile>
